<?xml version="1.0" encoding="UTF-8"?>
<!DOCTYPE svg PUBLIC "-//W3C//DTD SVG 1.1//EN" "http://www.w3.org/Graphics/SVG/1.1/DTD/svg11.dtd">
<svg version="1.2" width="204.02mm" height="178.92mm" viewBox="300 1555 20402 17892" preserveAspectRatio="xMidYMid" fill-rule="evenodd" stroke-width="28.222" stroke-linejoin="round" xmlns="http://www.w3.org/2000/svg" xmlns:ooo="http://xml.openoffice.org/svg/export" xmlns:xlink="http://www.w3.org/1999/xlink" xmlns:presentation="http://sun.com/xmlns/staroffice/presentation" xmlns:smil="http://www.w3.org/2001/SMIL20/" xmlns:anim="urn:oasis:names:tc:opendocument:xmlns:animation:1.0" xml:space="preserve">
 <defs class="EmbeddedBulletChars">
  <g id="bullet-char-template-57356" transform="scale(0.00048828125,-0.00048828125)">
   <path d="M 580,1141 L 1163,571 580,0 -4,571 580,1141 Z"/>
  </g>
  <g id="bullet-char-template-57354" transform="scale(0.00048828125,-0.00048828125)">
   <path d="M 8,1128 L 1137,1128 1137,0 8,0 8,1128 Z"/>
  </g>
  <g id="bullet-char-template-10146" transform="scale(0.00048828125,-0.00048828125)">
   <path d="M 174,0 L 602,739 174,1481 1456,739 174,0 Z M 1358,739 L 309,1346 659,739 1358,739 Z"/>
  </g>
  <g id="bullet-char-template-10132" transform="scale(0.00048828125,-0.00048828125)">
   <path d="M 2015,739 L 1276,0 717,0 1260,543 174,543 174,936 1260,936 717,1481 1274,1481 2015,739 Z"/>
  </g>
  <g id="bullet-char-template-10007" transform="scale(0.00048828125,-0.00048828125)">
   <path d="M 0,-2 C -7,14 -16,27 -25,37 L 356,567 C 262,823 215,952 215,954 215,979 228,992 255,992 264,992 276,990 289,987 310,991 331,999 354,1012 L 381,999 492,748 772,1049 836,1024 860,1049 C 881,1039 901,1025 922,1006 886,937 835,863 770,784 769,783 710,716 594,584 L 774,223 C 774,196 753,168 711,139 L 727,119 C 717,90 699,76 672,76 641,76 570,178 457,381 L 164,-76 C 142,-110 111,-127 72,-127 30,-127 9,-110 8,-76 1,-67 -2,-52 -2,-32 -2,-23 -1,-13 0,-2 Z"/>
  </g>
  <g id="bullet-char-template-10004" transform="scale(0.00048828125,-0.00048828125)">
   <path d="M 285,-33 C 182,-33 111,30 74,156 52,228 41,333 41,471 41,549 55,616 82,672 116,743 169,778 240,778 293,778 328,747 346,684 L 369,508 C 377,444 397,411 428,410 L 1163,1116 C 1174,1127 1196,1133 1229,1133 1271,1133 1292,1118 1292,1087 L 1292,965 C 1292,929 1282,901 1262,881 L 442,47 C 390,-6 338,-33 285,-33 Z"/>
  </g>
  <g id="bullet-char-template-9679" transform="scale(0.00048828125,-0.00048828125)">
   <path d="M 813,0 C 632,0 489,54 383,161 276,268 223,411 223,592 223,773 276,916 383,1023 489,1130 632,1184 813,1184 992,1184 1136,1130 1245,1023 1353,916 1407,772 1407,592 1407,412 1353,268 1245,161 1136,54 992,0 813,0 Z"/>
  </g>
  <g id="bullet-char-template-8226" transform="scale(0.00048828125,-0.00048828125)">
   <path d="M 346,457 C 273,457 209,483 155,535 101,586 74,649 74,723 74,796 101,859 155,911 209,963 273,989 346,989 419,989 480,963 531,910 582,859 608,796 608,723 608,648 583,586 532,535 482,483 420,457 346,457 Z"/>
  </g>
  <g id="bullet-char-template-8211" transform="scale(0.00048828125,-0.00048828125)">
   <path d="M -4,459 L 1135,459 1135,606 -4,606 -4,459 Z"/>
  </g>
  <g id="bullet-char-template-61548" transform="scale(0.00048828125,-0.00048828125)">
   <path d="M 173,740 C 173,903 231,1043 346,1159 462,1274 601,1332 765,1332 928,1332 1067,1274 1183,1159 1299,1043 1357,903 1357,740 1357,577 1299,437 1183,322 1067,206 928,148 765,148 601,148 462,206 346,322 231,437 173,577 173,740 Z"/>
  </g>
 </defs>
 <g class="Page">
  <g class="com.sun.star.drawing.CustomShape">
   <g id="id3">
    <rect class="BoundingBox" stroke="none" fill="none" x="300" y="1555" width="20402" height="17892"/>
    <path fill="rgb(221,221,221)" stroke="none" d="M 5525,1805 L 15475,1805 20451,10500 15475,19196 5525,19196 550,10500 5525,1805 Z"/>
    <path fill="none" stroke="rgb(72,0,123)" stroke-width="500" stroke-linejoin="round" d="M 5525,1805 L 15475,1805 20451,10500 15475,19196 5525,19196 550,10500 5525,1805 Z"/>
   </g>
  </g>
  <g class="Group">
   <g class="Group">
    <g class="com.sun.star.drawing.ClosedBezierShape">
     <g id="id4">
      <rect class="BoundingBox" stroke="none" fill="none" x="7949" y="3683" width="7238" height="13635"/>
      <path fill="rgb(72,0,123)" stroke="none" d="M 7949,5718 L 7949,3684 15186,3683 C 12887,3996 10711,4149 9759,5062 9534,5278 9349,5495 9199,5718 L 7949,5718 Z M 9116,5848 C 8748,6443 8604,7089 8539,7880 L 7949,7880 7949,5848 9116,5848 Z M 7949,10408 L 7949,8010 8529,8010 C 8480,8684 8480,9467 8445,10408 L 7949,10408 Z M 8442,10533 C 8422,11015 8394,11541 8344,12115 8162,14265 8067,15520 7949,17316 L 7949,10533 8442,10533 Z"/>
     </g>
    </g>
    <g class="com.sun.star.drawing.ClosedBezierShape">
     <g id="id5">
      <rect class="BoundingBox" stroke="none" fill="none" x="8254" y="3833" width="6936" height="13484"/>
      <path fill="rgb(213,143,56)" stroke="none" d="M 9155,7880 C 9248,7145 9474,6472 10058,5847 L 10120,5847 10120,7880 9155,7880 Z M 11931,8011 L 11931,10408 9038,10408 C 9101,9540 9062,8745 9139,8011 L 11931,8011 Z M 10186,5717 C 11242,4687 13038,3980 15189,3834 L 15189,5717 10186,5717 Z M 9758,10537 L 9758,17316 8255,17316 C 8429,15219 8878,12410 9029,10537 L 9758,10537 Z"/>
     </g>
    </g>
    <g class="com.sun.star.drawing.PolyPolygonShape">
     <g id="id6">
      <rect class="BoundingBox" stroke="none" fill="none" x="9759" y="10537" width="1088" height="6781"/>
      <path fill="rgb(72,0,123)" stroke="none" d="M 10108,10537 L 10107,15076 10846,15076 9759,17317 9760,10537 10108,10537 Z"/>
     </g>
    </g>
    <g class="com.sun.star.drawing.PolyPolygonShape">
     <g id="id7">
      <rect class="BoundingBox" stroke="none" fill="none" x="6861" y="3684" width="1088" height="6725"/>
      <path fill="rgb(213,143,56)" stroke="none" d="M 7948,10408 L 7601,10408 7602,5931 6861,5931 7948,3684 7948,10408 Z"/>
     </g>
    </g>
   </g>
   <g class="Group">
    <g class="com.sun.star.drawing.ClosedBezierShape">
     <g id="id8">
      <rect class="BoundingBox" stroke="none" fill="none" x="5882" y="16196" width="1457" height="1048"/>
      <path fill="rgb(51,51,51)" stroke="none" d="M 5985,16567 C 5985,16683 6011,16783 6064,16865 6116,16948 6189,17012 6282,17056 6375,17100 6484,17122 6608,17122 6735,17122 6846,17102 6940,17062 7033,17022 7106,16962 7158,16883 7209,16804 7235,16706 7235,16587 7235,16519 7230,16456 7219,16398 7209,16341 7195,16287 7180,16235 L 7279,16235 C 7297,16284 7312,16338 7322,16396 7333,16455 7338,16523 7338,16599 7338,16741 7308,16860 7247,16955 7186,17051 7101,17123 6991,17171 6881,17219 6753,17243 6606,17243 6466,17243 6341,17216 6232,17163 6123,17109 6037,17032 5975,16932 5913,16831 5882,16709 5882,16567 5882,16429 5908,16305 5961,16196 L 6061,16241 C 6010,16344 5985,16453 5985,16567 Z"/>
     </g>
    </g>
    <g class="com.sun.star.drawing.ClosedBezierShape">
     <g id="id9">
      <rect class="BoundingBox" stroke="none" fill="none" x="6243" y="15081" width="1096" height="941"/>
      <path fill="rgb(51,51,51)" stroke="none" d="M 6791,15081 C 6900,15081 6996,15099 7078,15135 7160,15172 7224,15225 7270,15295 7315,15366 7338,15452 7338,15553 7338,15650 7316,15734 7271,15804 7226,15874 7162,15927 7080,15965 6998,16002 6902,16021 6791,16021 6619,16021 6484,15979 6388,15894 6291,15809 6243,15693 6243,15545 6243,15445 6266,15360 6311,15291 6357,15222 6421,15170 6503,15134 6585,15099 6681,15081 6791,15081 Z M 6791,15905 C 6926,15905 7034,15876 7117,15820 7200,15763 7241,15674 7241,15553 7241,15431 7200,15341 7117,15283 7034,15226 6926,15198 6791,15198 6703,15198 6626,15209 6558,15233 6491,15257 6438,15294 6400,15346 6361,15397 6342,15464 6342,15547 6342,15667 6382,15756 6461,15816 6541,15875 6650,15905 6791,15905 Z"/>
     </g>
    </g>
    <g class="com.sun.star.drawing.ClosedBezierShape">
     <g id="id10">
      <rect class="BoundingBox" stroke="none" fill="none" x="6243" y="13952" width="1077" height="841"/>
      <path fill="rgb(51,51,51)" stroke="none" d="M 6243,14322 C 6243,14202 6274,14111 6336,14048 6398,13985 6496,13953 6628,13953 L 7318,13953 7318,14066 6636,14066 C 6535,14066 6461,14088 6414,14134 6366,14179 6342,14246 6342,14334 6342,14566 6476,14682 6743,14682 L 7318,14682 7318,14792 6263,14792 6263,14701 6445,14686 6445,14678 C 6387,14650 6339,14606 6301,14546 6262,14487 6243,14412 6243,14322 Z"/>
     </g>
    </g>
    <g class="com.sun.star.drawing.ClosedBezierShape">
     <g id="id11">
      <rect class="BoundingBox" stroke="none" fill="none" x="5902" y="12817" width="1418" height="775"/>
      <path fill="rgb(51,51,51)" stroke="none" d="M 7319,13477 C 7319,13515 7319,13553 7319,13591 6847,13591 6374,13591 5902,13591 5902,13333 5902,13075 5902,12817 5936,12817 5971,12817 6005,12817 6005,13037 6005,13257 6005,13477 6200,13477 6394,13477 6589,13477 6589,13269 6589,13061 6589,12853 6623,12853 6658,12853 6692,12853 6692,13061 6692,13269 6692,13477 6901,13477 7110,13477 7319,13477 Z"/>
     </g>
    </g>
    <g class="com.sun.star.drawing.ClosedBezierShape">
     <g id="id12">
      <rect class="BoundingBox" stroke="none" fill="none" x="5811" y="12503" width="1509" height="115"/>
      <path fill="rgb(51,51,51)" stroke="none" d="M 7319,12504 C 7319,12542 7319,12579 7319,12617 6816,12617 6314,12617 5811,12617 5811,12579 5811,12542 5811,12504 6314,12504 6816,12504 7319,12504 Z"/>
     </g>
    </g>
    <g class="com.sun.star.drawing.ClosedBezierShape">
     <g id="id13">
      <rect class="BoundingBox" stroke="none" fill="none" x="6263" y="11329" width="1076" height="844"/>
      <path fill="rgb(51,51,51)" stroke="none" d="M 6263,11329 L 7319,11329 7319,11422 7138,11438 7138,11444 C 7195,11473 7242,11517 7281,11577 7319,11637 7338,11711 7338,11801 7338,12049 7210,12172 6953,12172 L 6263,12172 6263,12058 6946,12058 C 7046,12058 7120,12035 7169,11991 7217,11946 7241,11879 7241,11789 7241,11557 7107,11442 6838,11442 L 6263,11442 6263,11329 Z"/>
     </g>
    </g>
    <g class="com.sun.star.drawing.ClosedBezierShape">
     <g id="id14">
      <rect class="BoundingBox" stroke="none" fill="none" x="6264" y="10204" width="1056" height="905"/>
      <path fill="rgb(51,51,51)" stroke="none" d="M 6778,10725 C 6607,10848 6435,10970 6264,11093 6264,11049 6264,11004 6264,10960 6409,10860 6555,10759 6700,10658 6555,10557 6409,10455 6264,10354 6264,10311 6264,10269 6264,10226 6435,10347 6607,10468 6778,10589 6958,10461 7139,10332 7319,10204 7319,10247 7319,10291 7319,10334 7165,10442 7010,10550 6855,10658 7010,10766 7165,10873 7319,10980 7319,11023 7319,11066 7319,11108 7139,10981 6958,10853 6778,10725 Z"/>
     </g>
    </g>
    <g class="com.sun.star.drawing.ClosedBezierShape">
     <g id="id15">
      <rect class="BoundingBox" stroke="none" fill="none" x="5902" y="9102" width="1418" height="860"/>
      <path fill="rgb(51,51,51)" stroke="none" d="M 5902,9610 C 5902,9271 6036,9102 6303,9102 6439,9102 6546,9146 6623,9233 6701,9321 6739,9457 6739,9641 L 6739,9847 7319,9847 7319,9961 5902,9961 5902,9610 Z M 6003,9621 L 6003,9847 6640,9847 6640,9653 C 6640,9516 6616,9410 6568,9334 6519,9258 6433,9220 6309,9220 6203,9220 6126,9253 6077,9318 6028,9383 6003,9484 6003,9621 Z"/>
     </g>
    </g>
    <g class="com.sun.star.drawing.ClosedBezierShape">
     <g id="id16">
      <rect class="BoundingBox" stroke="none" fill="none" x="6246" y="8248" width="1075" height="575"/>
      <path fill="rgb(51,51,51)" stroke="none" d="M 6246,8390 C 6246,8335 6252,8287 6264,8248 L 6367,8264 C 6362,8285 6358,8306 6355,8327 6352,8348 6351,8370 6351,8394 6351,8492 6387,8568 6457,8624 6528,8680 6622,8708 6740,8708 L 7320,8708 7320,8821 6264,8821 6264,8726 6462,8714 6462,8708 C 6403,8682 6352,8642 6309,8589 6267,8535 6246,8469 6246,8390 Z"/>
     </g>
    </g>
    <g class="com.sun.star.drawing.ClosedBezierShape">
     <g id="id17">
      <rect class="BoundingBox" stroke="none" fill="none" x="6243" y="7202" width="1096" height="942"/>
      <path fill="rgb(51,51,51)" stroke="none" d="M 6791,7202 C 6900,7202 6996,7220 7078,7256 7160,7293 7224,7346 7270,7416 7315,7487 7338,7573 7338,7674 7338,7771 7316,7855 7271,7925 7226,7995 7162,8048 7080,8086 6998,8123 6902,8142 6791,8142 6619,8142 6484,8100 6388,8015 6291,7930 6243,7814 6243,7666 6243,7566 6266,7481 6311,7412 6357,7343 6421,7291 6503,7255 6585,7220 6681,7202 6791,7202 Z M 6791,8026 C 6926,8026 7034,7997 7117,7941 7200,7884 7241,7795 7241,7674 7241,7552 7200,7462 7117,7404 7034,7347 6926,7319 6791,7319 6703,7319 6626,7330 6558,7354 6491,7378 6438,7415 6400,7467 6361,7518 6342,7585 6342,7668 6342,7788 6382,7877 6461,7937 6541,7996 6650,8026 6791,8026 Z"/>
     </g>
    </g>
   </g>
  </g>
 </g>
</svg>